<?xml version="1.0" standalone="no"?>
<!DOCTYPE svg PUBLIC "-//W3C//DTD SVG 20010904//EN"
 "http://www.w3.org/TR/2001/REC-SVG-20010904/DTD/svg10.dtd">
<svg version="1.0" xmlns="http://www.w3.org/2000/svg"
 width="400.000000pt" height="115.000000pt" viewBox="0 0 400.000000 115.000000"
 preserveAspectRatio="xMidYMid meet">
<metadata>
Created by potrace 1.16, written by Peter Selinger 2001-2019
</metadata>
<g transform="translate(0.000000,115.000000) scale(0.100000,-0.100000)"
fill="#000000" stroke="none">
<path d="M470 580 l0 -330 240 0 240 0 0 90 0 90 -155 0 -155 0 0 240 0 240
-85 0 -85 0 0 -330z"/>
<path d="M1348 898 c-21 -6 -38 -14 -38 -19 0 -5 -7 -9 -15 -9 -8 0 -23 -9
-32 -20 -10 -11 -23 -20 -30 -20 -7 0 -13 -5 -13 -10 0 -6 -9 -21 -21 -33 -45
-47 -63 -106 -63 -207 -1 -104 17 -165 61 -207 13 -12 23 -27 23 -33 0 -5 5
-10 10 -10 6 0 21 -11 33 -24 12 -13 33 -27 47 -31 14 -4 28 -13 32 -19 10
-16 246 -15 256 1 4 6 20 15 35 18 15 4 27 11 27 16 0 5 5 9 11 9 15 0 79 65
79 80 0 6 7 13 15 16 8 3 17 21 21 40 3 19 10 37 15 40 5 3 9 47 9 99 0 52 -4
96 -9 99 -5 3 -12 22 -15 41 -4 19 -11 35 -16 35 -5 0 -11 8 -15 19 -8 27 -75
91 -102 97 -13 4 -23 10 -23 14 0 26 -204 39 -282 18z m182 -168 c0 -5 5 -10
12 -10 6 0 29 -19 51 -42 38 -41 39 -43 35 -108 -3 -60 -7 -70 -39 -103 -20
-20 -41 -37 -48 -37 -6 0 -11 -4 -11 -10 0 -5 -25 -10 -55 -10 -30 0 -55 4
-55 9 0 5 -11 12 -25 15 -13 3 -37 23 -52 43 -24 31 -28 46 -28 98 0 52 4 67
28 98 15 20 39 40 52 43 14 3 25 10 25 15 0 5 25 9 55 9 30 0 55 -4 55 -10z"/>
<path d="M2265 903 c-16 -3 -41 -13 -56 -24 -15 -10 -30 -19 -34 -19 -13 0
-85 -82 -85 -96 0 -8 -4 -14 -9 -14 -5 0 -12 -12 -16 -27 -3 -15 -12 -31 -18
-35 -16 -10 -16 -216 -1 -226 6 -4 14 -19 18 -35 3 -15 11 -27 16 -27 6 0 10
-6 10 -13 0 -7 8 -20 18 -29 9 -9 30 -30 46 -47 16 -17 38 -34 50 -37 12 -4
24 -12 28 -18 11 -16 270 -15 276 2 2 6 9 12 16 12 7 0 23 9 36 20 13 11 27
20 32 20 4 0 8 68 8 150 l0 151 -87 -3 -88 -3 -3 -97 -3 -98 -49 0 c-28 0 -50
4 -50 9 0 5 -14 12 -30 16 -20 4 -32 14 -36 30 -3 13 -12 26 -20 29 -8 3 -14
14 -14 25 0 11 -4 23 -10 26 -5 3 -10 19 -10 36 0 16 5 29 10 29 6 0 10 9 10
20 0 22 66 90 87 90 7 0 13 5 13 10 0 6 23 10 50 10 28 0 50 -4 50 -10 0 -5 7
-10 15 -10 8 0 23 -9 32 -20 32 -37 80 -17 98 41 5 13 14 29 22 34 9 7 13 23
11 40 -2 24 -13 35 -58 59 -48 25 -67 29 -150 32 -52 1 -108 0 -125 -3z"/>
<path d="M3065 901 c-34 -9 -85 -35 -94 -48 -3 -4 -15 -13 -25 -19 -11 -6 -24
-19 -30 -30 -6 -10 -16 -22 -22 -26 -7 -4 -15 -20 -19 -35 -3 -15 -12 -31 -18
-35 -16 -10 -17 -256 -1 -266 5 -4 16 -22 23 -39 8 -18 17 -33 22 -33 5 0 9
-6 9 -13 0 -14 27 -40 53 -50 9 -3 17 -11 17 -16 0 -5 12 -12 27 -16 15 -3 31
-12 35 -18 9 -15 255 -17 266 -2 4 6 18 16 32 23 51 25 100 64 100 80 0 5 9
19 20 32 11 13 20 29 20 36 0 7 6 14 13 17 17 5 17 254 0 265 -6 4 -14 19 -18
34 -4 15 -13 29 -21 32 -8 3 -14 10 -14 16 0 15 -33 50 -46 50 -7 0 -14 4 -16
8 -1 4 -21 19 -42 32 -33 20 -54 24 -140 26 -56 2 -114 -1 -131 -5z m165 -171
c0 -5 6 -10 14 -10 16 0 60 -39 69 -63 3 -9 11 -17 17 -17 6 0 10 -25 10 -60
0 -33 -4 -60 -9 -60 -5 0 -13 -10 -16 -22 -9 -26 -53 -68 -71 -68 -8 0 -14 -4
-14 -10 0 -17 -98 -11 -128 8 -37 23 -72 62 -72 78 0 8 -4 14 -10 14 -13 0
-13 107 0 123 68 80 93 96 158 96 28 1 52 -3 52 -9z"/>
</g>
</svg>
